<?xml version="1.0" encoding="UTF-8"?>
<svg xmlns="http://www.w3.org/2000/svg" xmlns:xlink="http://www.w3.org/1999/xlink" width="18pt" height="9pt" viewBox="0 0 18 9" version="1.1">
<g id="surface1">
<path style=" stroke:none;fill-rule:nonzero;fill:rgb(43.529412%,74.901961%,98.431373%);fill-opacity:1;" d="M 13.09375 9 C 13.09375 7.335938 12.058594 5.851562 10.621094 5.21875 C 11.386719 4.726562 11.878906 3.824219 11.878906 2.835938 C 11.878906 1.261719 10.574219 0 9 0 C 7.425781 0 6.121094 1.261719 6.121094 2.835938 C 6.121094 3.824219 6.613281 4.679688 7.378906 5.21875 C 5.941406 5.851562 4.90625 7.335938 4.90625 9 L 5.671875 9 C 5.671875 7.15625 7.15625 5.671875 9.046875 5.671875 C 10.890625 5.671875 12.421875 7.15625 12.421875 9 L 13.09375 9 M 9 4.949219 C 7.828125 4.949219 6.886719 4.003906 6.886719 2.878906 C 6.886719 1.710938 7.828125 0.808594 9 0.808594 C 10.171875 0.808594 11.113281 1.753906 11.113281 2.878906 C 11.113281 4.003906 10.171875 4.949219 9 4.949219 Z M 9 4.949219 "/>
</g>
</svg>
