<?xml version="1.0" standalone="no"?><!DOCTYPE svg PUBLIC "-//W3C//DTD SVG 1.1//EN" "http://www.w3.org/Graphics/SVG/1.1/DTD/svg11.dtd"><svg class="icon" height="512" viewBox="0 0 1024 1024" version="1.1" xmlns="http://www.w3.org/2000/svg"><path d="M977.92 1024c0-189.44-117.76-358.4-281.6-430.08 87.04-56.32 143.36-158.72 143.36-271.36C839.68 143.36 691.2 0 512 0 332.8 0 184.32 143.36 184.32 322.56c0 112.64 56.32 209.92 143.36 271.36C163.84 665.6 46.08 834.56 46.08 1024h87.04c0-209.92 168.96-378.88 384-378.88 209.92 0 384 168.96 384 378.88h76.8M512 563.2c-133.12 0-240.64-107.52-240.64-235.52 0-133.12 107.52-235.52 240.64-235.52s240.64 107.52 240.64 235.52c0 128-107.52 235.52-240.64 235.52z" fill="#6FBFFB" /></svg>